# xmcd CD database file
#
# Track frame offsets:
#	150
#	20085
#	42885
#	66990
#	85888
#	113708
#	140910
#	161925
#	182268
#	204770
#
# Disc length: 3004 seconds
#
# Revision: 3
# Processed by: cddbd v1.4PL0 Copyright (c) Steve Scherf et al.
# Submitted via: CDex 1.40Release
#
DISCID=880bba0a
DTITLE=Patrice Rushen - Signature
DYEAR=1900
DGENRE=
TTITLE0=Almost Home
TTITLE1=Days Gone By
TTITLE2=Sweetest Taboo
TTITLE3=Sneaky Pete
TTITLE4=Softly
TTITLE5=Hurry Up This Way Again
TTITLE6=L'Esprit De Joie (The Spirit Of Joy)
TTITLE7=Wise Ol' Souls
TTITLE8=Oneness
TTITLE9=Arrival
EXTD=
EXTT0=
EXTT1=
EXTT2=
EXTT3=
EXTT4=
EXTT5=
EXTT6=
EXTT7=
EXTT8=
EXTT9=
PLAYORDER=
